<svg width="15" height="15" viewBox="0 0 15 15" fill="none" xmlns="http://www.w3.org/2000/svg">
<path d="M13.7485 2.43513L11.8553 0.548477L7.92356 4.47367L9.44777 6.04781C9.19233 6.50125 8.63809 7.3699 7.69352 8.31447C6.74884 9.25918 5.87384 9.81971 5.41605 10.0792L3.87279 8.55562L0.00244141 12.4029L1.88529 14.2983C2.60504 15.0181 3.70016 15.2046 4.61038 14.7625C5.99939 14.0879 8.09565 12.8431 10.1945 10.7443C12.2933 8.64552 13.538 6.54924 14.2127 5.16023C14.3725 4.83109 14.4502 4.47787 14.4502 4.12692C14.4502 3.5072 14.208 2.89464 13.7485 2.43513ZM13.1979 4.66732C12.5611 5.97846 11.3847 7.95865 9.39679 9.94658C7.40886 11.9345 5.42867 13.1109 4.11753 13.7477C3.63953 13.9799 3.06305 13.8806 2.68438 13.5019L1.59764 12.4079L3.87561 10.1436L5.19033 11.4415L5.54208 11.2849C5.59924 11.2595 6.95965 10.6438 8.49134 9.11215C10.024 7.57947 10.6268 6.23054 10.6517 6.17386L10.8043 5.82683L9.50696 4.48705L11.8561 2.14178L12.9514 3.23327C13.3308 3.6133 13.43 4.18952 13.1979 4.66732Z" fill="#6E9C9F"/>
</svg>
